<?xml version="1.0" encoding="UTF-8"?>
<svg width="800px" height="600px" viewBox="0 0 800 600" version="1.1" xmlns="http://www.w3.org/2000/svg">
    <g stroke="none" stroke-width="1" fill="none" fill-rule="evenodd">
        <!-- Background Circle -->
        <circle fill="#F0F4FF" cx="400" cy="300" r="250"/>
        
        <!-- 404 Text -->
        <g transform="translate(200, 200)">
            <!-- 4 -->
            <path d="M50,0 L50,200 L0,200 L0,150 L50,150 L50,0 Z" fill="#2563EB"/>
            <path d="M0,0 L100,0 L100,50 L0,50 Z" fill="#2563EB"/>
            
            <!-- 0 -->
            <path d="M150,0 C200,0 200,200 150,200 C100,200 100,0 150,0 Z M150,50 C125,50 125,150 150,150 C175,150 175,50 150,50 Z" fill="#2563EB"/>
            
            <!-- 4 -->
            <path d="M250,0 L250,200 L200,200 L200,150 L250,150 L250,0 Z" fill="#2563EB"/>
            <path d="M200,0 L300,0 L300,50 L200,50 Z" fill="#2563EB"/>
        </g>
        
        <!-- Decorative Elements -->
        <circle fill="#60A5FA" cx="200" cy="150" r="20" opacity="0.5"/>
        <circle fill="#60A5FA" cx="600" cy="450" r="30" opacity="0.5"/>
        <circle fill="#60A5FA" cx="500" cy="100" r="15" opacity="0.5"/>
        <circle fill="#60A5FA" cx="100" cy="400" r="25" opacity="0.5"/>
        
        <!-- Search Icon -->
        <g transform="translate(350, 450) scale(0.8)">
            <circle stroke="#2563EB" stroke-width="8" fill="none" cx="50" cy="50" r="40"/>
            <line x1="80" y1="80" x2="100" y2="100" stroke="#2563EB" stroke-width="8" stroke-linecap="round"/>
        </g>
    </g>
</svg> 